<mxfile host="app.diagrams.net" modified="2024-05-09T12:14:38.776Z" agent="Mozilla/5.0 (Windows NT 10.0; Win64; x64) AppleWebKit/537.36 (KHTML, like Gecko) Chrome/122.0.0.0 YaBrowser/24.4.0.0 Safari/537.36" etag="UBodv2zIM6fIHDl4W2xV" version="24.3.1" type="device">
  <diagram name="Страница — 1" id="TmbUJHvbOirNMvf7GXve">
    <mxGraphModel dx="1894" dy="822" grid="1" gridSize="10" guides="1" tooltips="1" connect="1" arrows="1" fold="1" page="1" pageScale="1" pageWidth="827" pageHeight="1169" math="0" shadow="0">
      <root>
        <mxCell id="0" />
        <mxCell id="1" parent="0" />
        <mxCell id="3E6Y3QEfq4ClXKRZ9mTM-2" value="Заполнение&amp;nbsp;&lt;div&gt;полей&lt;/div&gt;" style="shape=parallelogram;perimeter=parallelogramPerimeter;whiteSpace=wrap;html=1;fixedSize=1;" parent="1" vertex="1">
          <mxGeometry x="90" y="120" width="210" height="60" as="geometry" />
        </mxCell>
        <mxCell id="3E6Y3QEfq4ClXKRZ9mTM-3" value="Поля валидны" style="rhombus;whiteSpace=wrap;html=1;" parent="1" vertex="1">
          <mxGeometry x="90" y="210" width="210" height="80" as="geometry" />
        </mxCell>
        <mxCell id="3E6Y3QEfq4ClXKRZ9mTM-4" value="" style="endArrow=none;html=1;rounded=0;entryX=0.5;entryY=1;entryDx=0;entryDy=0;exitX=0.5;exitY=0;exitDx=0;exitDy=0;" parent="1" source="3E6Y3QEfq4ClXKRZ9mTM-2" target="C9cPLAWH6p_kqMKFaHeZ-28" edge="1">
          <mxGeometry width="50" height="50" relative="1" as="geometry">
            <mxPoint x="210" y="110" as="sourcePoint" />
            <mxPoint x="195" y="90" as="targetPoint" />
          </mxGeometry>
        </mxCell>
        <mxCell id="3E6Y3QEfq4ClXKRZ9mTM-6" value="" style="endArrow=none;html=1;rounded=0;exitX=0.5;exitY=0;exitDx=0;exitDy=0;entryX=0.5;entryY=1;entryDx=0;entryDy=0;" parent="1" source="3E6Y3QEfq4ClXKRZ9mTM-3" target="3E6Y3QEfq4ClXKRZ9mTM-2" edge="1">
          <mxGeometry width="50" height="50" relative="1" as="geometry">
            <mxPoint x="270" y="210" as="sourcePoint" />
            <mxPoint x="320" y="160" as="targetPoint" />
          </mxGeometry>
        </mxCell>
        <mxCell id="3E6Y3QEfq4ClXKRZ9mTM-9" value="" style="endArrow=none;html=1;rounded=0;exitX=0.5;exitY=1;exitDx=0;exitDy=0;entryX=0.5;entryY=0;entryDx=0;entryDy=0;" parent="1" source="3E6Y3QEfq4ClXKRZ9mTM-3" target="C9cPLAWH6p_kqMKFaHeZ-10" edge="1">
          <mxGeometry width="50" height="50" relative="1" as="geometry">
            <mxPoint x="270" y="230" as="sourcePoint" />
            <mxPoint x="340" y="250" as="targetPoint" />
          </mxGeometry>
        </mxCell>
        <mxCell id="3E6Y3QEfq4ClXKRZ9mTM-10" value="Нет" style="text;html=1;align=center;verticalAlign=middle;whiteSpace=wrap;rounded=0;" parent="1" vertex="1">
          <mxGeometry x="140" y="290" width="60" height="30" as="geometry" />
        </mxCell>
        <mxCell id="3E6Y3QEfq4ClXKRZ9mTM-11" value="" style="endArrow=classic;html=1;rounded=0;exitX=0.5;exitY=1;exitDx=0;exitDy=0;" parent="1" source="C9cPLAWH6p_kqMKFaHeZ-10" edge="1">
          <mxGeometry width="50" height="50" relative="1" as="geometry">
            <mxPoint x="570" y="250" as="sourcePoint" />
            <mxPoint x="200" y="100" as="targetPoint" />
            <Array as="points">
              <mxPoint x="195" y="400" />
              <mxPoint x="30" y="400" />
              <mxPoint x="30" y="240" />
              <mxPoint x="30" y="100" />
            </Array>
          </mxGeometry>
        </mxCell>
        <mxCell id="3E6Y3QEfq4ClXKRZ9mTM-13" value="Да" style="text;html=1;align=center;verticalAlign=middle;whiteSpace=wrap;rounded=0;" parent="1" vertex="1">
          <mxGeometry x="294" y="220" width="60" height="30" as="geometry" />
        </mxCell>
        <mxCell id="s32ZUZtTC45ZSuaJaoDs-5" style="edgeStyle=orthogonalEdgeStyle;rounded=0;orthogonalLoop=1;jettySize=auto;html=1;exitX=0.5;exitY=1;exitDx=0;exitDy=0;" edge="1" parent="1" source="C9cPLAWH6p_kqMKFaHeZ-1">
          <mxGeometry relative="1" as="geometry">
            <mxPoint x="700" y="360" as="targetPoint" />
            <Array as="points">
              <mxPoint x="455" y="360" />
            </Array>
          </mxGeometry>
        </mxCell>
        <mxCell id="C9cPLAWH6p_kqMKFaHeZ-1" value="Период инвестирования&amp;nbsp;&lt;div&gt;задан в годах&lt;/div&gt;" style="rhombus;whiteSpace=wrap;html=1;" parent="1" vertex="1">
          <mxGeometry x="350" y="195" width="210" height="110" as="geometry" />
        </mxCell>
        <mxCell id="C9cPLAWH6p_kqMKFaHeZ-3" value="Перевод периода инвестирования в месяцы&amp;nbsp;" style="rounded=0;whiteSpace=wrap;html=1;" parent="1" vertex="1">
          <mxGeometry x="590" y="290" width="210" height="60" as="geometry" />
        </mxCell>
        <mxCell id="C9cPLAWH6p_kqMKFaHeZ-5" value="Нет" style="text;html=1;align=center;verticalAlign=middle;whiteSpace=wrap;rounded=0;" parent="1" vertex="1">
          <mxGeometry x="390" y="300" width="60" height="30" as="geometry" />
        </mxCell>
        <mxCell id="C9cPLAWH6p_kqMKFaHeZ-6" value="Да" style="text;html=1;align=center;verticalAlign=middle;whiteSpace=wrap;rounded=0;" parent="1" vertex="1">
          <mxGeometry x="540" y="220" width="60" height="30" as="geometry" />
        </mxCell>
        <mxCell id="C9cPLAWH6p_kqMKFaHeZ-7" value="Вычисление числовых коэффициентов, соответствующих выбранному периоду реинвестирования и периоду дополнительного пополнения" style="rounded=0;whiteSpace=wrap;html=1;" parent="1" vertex="1">
          <mxGeometry x="590" y="377" width="210" height="95" as="geometry" />
        </mxCell>
        <mxCell id="C9cPLAWH6p_kqMKFaHeZ-8" value="Вычисление ежемесячных данных" style="rounded=0;whiteSpace=wrap;html=1;" parent="1" vertex="1">
          <mxGeometry x="590" y="500" width="210" height="60" as="geometry" />
        </mxCell>
        <mxCell id="C9cPLAWH6p_kqMKFaHeZ-9" value="" style="endArrow=none;html=1;rounded=0;exitX=0.5;exitY=0;exitDx=0;exitDy=0;entryX=0.5;entryY=1;entryDx=0;entryDy=0;" parent="1" source="C9cPLAWH6p_kqMKFaHeZ-7" target="C9cPLAWH6p_kqMKFaHeZ-3" edge="1">
          <mxGeometry width="50" height="50" relative="1" as="geometry">
            <mxPoint x="940" y="340" as="sourcePoint" />
            <mxPoint x="990" y="290" as="targetPoint" />
          </mxGeometry>
        </mxCell>
        <mxCell id="C9cPLAWH6p_kqMKFaHeZ-10" value="Вывод ошибок&amp;nbsp;&lt;div&gt;под невалидными полями&lt;/div&gt;" style="shape=parallelogram;perimeter=parallelogramPerimeter;whiteSpace=wrap;html=1;fixedSize=1;" parent="1" vertex="1">
          <mxGeometry x="90" y="320" width="210" height="60" as="geometry" />
        </mxCell>
        <mxCell id="C9cPLAWH6p_kqMKFaHeZ-14" value="" style="endArrow=none;html=1;rounded=0;exitX=0.5;exitY=0;exitDx=0;exitDy=0;entryX=0.5;entryY=1;entryDx=0;entryDy=0;" parent="1" source="C9cPLAWH6p_kqMKFaHeZ-8" target="C9cPLAWH6p_kqMKFaHeZ-7" edge="1">
          <mxGeometry width="50" height="50" relative="1" as="geometry">
            <mxPoint x="705" y="387" as="sourcePoint" />
            <mxPoint x="705" y="360" as="targetPoint" />
          </mxGeometry>
        </mxCell>
        <mxCell id="C9cPLAWH6p_kqMKFaHeZ-15" value="Вычисление годовых данных на основе ежемесячных" style="rounded=0;whiteSpace=wrap;html=1;" parent="1" vertex="1">
          <mxGeometry x="590" y="590" width="210" height="60" as="geometry" />
        </mxCell>
        <mxCell id="C9cPLAWH6p_kqMKFaHeZ-16" value="" style="endArrow=none;html=1;rounded=0;exitX=0.5;exitY=0;exitDx=0;exitDy=0;entryX=0.5;entryY=1;entryDx=0;entryDy=0;" parent="1" source="C9cPLAWH6p_kqMKFaHeZ-15" target="C9cPLAWH6p_kqMKFaHeZ-8" edge="1">
          <mxGeometry width="50" height="50" relative="1" as="geometry">
            <mxPoint x="705" y="510" as="sourcePoint" />
            <mxPoint x="705" y="482" as="targetPoint" />
          </mxGeometry>
        </mxCell>
        <mxCell id="C9cPLAWH6p_kqMKFaHeZ-17" value="Вычисление суммы всех дополнительных вложений" style="rounded=0;whiteSpace=wrap;html=1;" parent="1" vertex="1">
          <mxGeometry x="590" y="680" width="210" height="60" as="geometry" />
        </mxCell>
        <mxCell id="C9cPLAWH6p_kqMKFaHeZ-18" value="" style="endArrow=none;html=1;rounded=0;exitX=0.5;exitY=0;exitDx=0;exitDy=0;entryX=0.5;entryY=1;entryDx=0;entryDy=0;" parent="1" source="C9cPLAWH6p_kqMKFaHeZ-17" target="C9cPLAWH6p_kqMKFaHeZ-15" edge="1">
          <mxGeometry width="50" height="50" relative="1" as="geometry">
            <mxPoint x="705" y="600" as="sourcePoint" />
            <mxPoint x="705" y="570" as="targetPoint" />
          </mxGeometry>
        </mxCell>
        <mxCell id="C9cPLAWH6p_kqMKFaHeZ-20" value="Вычисление дохода" style="rounded=0;whiteSpace=wrap;html=1;" parent="1" vertex="1">
          <mxGeometry x="590" y="770" width="210" height="60" as="geometry" />
        </mxCell>
        <mxCell id="C9cPLAWH6p_kqMKFaHeZ-21" value="" style="endArrow=none;html=1;rounded=0;exitX=0.5;exitY=0;exitDx=0;exitDy=0;entryX=0.5;entryY=1;entryDx=0;entryDy=0;" parent="1" source="C9cPLAWH6p_kqMKFaHeZ-20" target="C9cPLAWH6p_kqMKFaHeZ-17" edge="1">
          <mxGeometry width="50" height="50" relative="1" as="geometry">
            <mxPoint x="865" y="750" as="sourcePoint" />
            <mxPoint x="855" y="800" as="targetPoint" />
          </mxGeometry>
        </mxCell>
        <mxCell id="C9cPLAWH6p_kqMKFaHeZ-22" value="Вычисление итоговой суммы" style="rounded=0;whiteSpace=wrap;html=1;" parent="1" vertex="1">
          <mxGeometry x="590" y="860" width="210" height="60" as="geometry" />
        </mxCell>
        <mxCell id="C9cPLAWH6p_kqMKFaHeZ-23" value="" style="endArrow=none;html=1;rounded=0;exitX=0.5;exitY=0;exitDx=0;exitDy=0;entryX=0.5;entryY=1;entryDx=0;entryDy=0;" parent="1" source="C9cPLAWH6p_kqMKFaHeZ-22" target="C9cPLAWH6p_kqMKFaHeZ-20" edge="1">
          <mxGeometry width="50" height="50" relative="1" as="geometry">
            <mxPoint x="705" y="780" as="sourcePoint" />
            <mxPoint x="705" y="750" as="targetPoint" />
          </mxGeometry>
        </mxCell>
        <mxCell id="C9cPLAWH6p_kqMKFaHeZ-26" value="" style="endArrow=none;html=1;rounded=0;exitX=0.5;exitY=0;exitDx=0;exitDy=0;entryX=0.5;entryY=1;entryDx=0;entryDy=0;" parent="1" source="C9cPLAWH6p_kqMKFaHeZ-27" target="C9cPLAWH6p_kqMKFaHeZ-22" edge="1">
          <mxGeometry width="50" height="50" relative="1" as="geometry">
            <mxPoint x="448" y="940" as="sourcePoint" />
            <mxPoint x="458" y="830" as="targetPoint" />
          </mxGeometry>
        </mxCell>
        <mxCell id="C9cPLAWH6p_kqMKFaHeZ-27" value="&lt;div style=&quot;&quot;&gt;&lt;span style=&quot;background-color: initial;&quot;&gt;&amp;nbsp; &amp;nbsp; &amp;nbsp; &amp;nbsp; &amp;nbsp;Конец&lt;/span&gt;&lt;/div&gt;" style="html=1;align=center;verticalAlign=top;rounded=1;absoluteArcSize=1;arcSize=50;dashed=0;spacingTop=10;spacingRight=30;whiteSpace=wrap;" parent="1" vertex="1">
          <mxGeometry x="590" y="950" width="210" height="50" as="geometry" />
        </mxCell>
        <mxCell id="C9cPLAWH6p_kqMKFaHeZ-28" value="&lt;div style=&quot;&quot;&gt;&amp;nbsp; &amp;nbsp; &amp;nbsp; &amp;nbsp; Начало&lt;/div&gt;" style="html=1;align=center;verticalAlign=top;rounded=1;absoluteArcSize=1;arcSize=50;dashed=0;spacingTop=10;spacingRight=30;whiteSpace=wrap;" parent="1" vertex="1">
          <mxGeometry x="90" y="40" width="210" height="50" as="geometry" />
        </mxCell>
        <mxCell id="s32ZUZtTC45ZSuaJaoDs-1" value="" style="endArrow=none;html=1;rounded=0;exitX=0;exitY=0.5;exitDx=0;exitDy=0;entryX=1;entryY=0.5;entryDx=0;entryDy=0;" edge="1" parent="1" source="C9cPLAWH6p_kqMKFaHeZ-1" target="3E6Y3QEfq4ClXKRZ9mTM-3">
          <mxGeometry width="50" height="50" relative="1" as="geometry">
            <mxPoint x="205" y="220" as="sourcePoint" />
            <mxPoint x="205" y="190" as="targetPoint" />
          </mxGeometry>
        </mxCell>
        <mxCell id="s32ZUZtTC45ZSuaJaoDs-3" value="" style="endArrow=none;html=1;rounded=0;exitX=0.5;exitY=0;exitDx=0;exitDy=0;entryX=1;entryY=0.5;entryDx=0;entryDy=0;" edge="1" parent="1" source="C9cPLAWH6p_kqMKFaHeZ-3" target="C9cPLAWH6p_kqMKFaHeZ-1">
          <mxGeometry width="50" height="50" relative="1" as="geometry">
            <mxPoint x="360" y="260" as="sourcePoint" />
            <mxPoint x="310" y="260" as="targetPoint" />
            <Array as="points">
              <mxPoint x="695" y="250" />
            </Array>
          </mxGeometry>
        </mxCell>
      </root>
    </mxGraphModel>
  </diagram>
</mxfile>
